<?xml version="1.0" standalone="no"?><!DOCTYPE svg PUBLIC "-//W3C//DTD SVG 1.1//EN" "http://www.w3.org/Graphics/SVG/1.1/DTD/svg11.dtd"><svg t="1701938792828" class="icon" viewBox="0 0 1024 1024" version="1.1" xmlns="http://www.w3.org/2000/svg" p-id="3470" xmlns:xlink="http://www.w3.org/1999/xlink" width="200" height="200"><path d="M913.408 994.816H110.592c-53.76 0-97.792-44.032-97.792-97.792V126.976c0-53.76 44.032-97.792 97.792-97.792h802.816c53.76 0 97.792 44.032 97.792 97.792v770.048c0 53.76-44.032 97.792-97.792 97.792M123.392 92.16c-26.112 0-47.104 20.992-47.104 47.104v744.96c0 26.112 20.992 47.104 47.104 47.104h776.704c26.112 0 47.104-20.992 47.104-47.104V139.264c0-26.112-20.992-47.104-47.104-47.104H123.392z" fill="#40210F" p-id="3471"></path><path d="M307.2 78.848h56.32v867.328H307.2z" fill="#40210F" p-id="3472"></path><path d="M252.928 253.44H130.56c-10.24 0-18.944-10.24-18.944-22.528 0-12.288 8.192-22.528 18.944-22.528h122.368c10.24 0 18.944 10.24 18.944 22.528 0 12.8-8.704 22.528-18.944 22.528M240.128 375.296H130.56c-10.24 0-18.944-10.24-18.944-22.528 0-12.288 8.192-22.528 18.944-22.528h109.568c10.24 0 18.944 10.24 18.944 22.528 0 12.288-8.704 22.528-18.944 22.528M227.328 496.64H130.56c-10.24 0-18.944-10.24-18.944-22.528 0-12.288 8.704-22.528 18.944-22.528h96.768c10.24 0 18.944 10.24 18.944 22.528 0 12.288-8.192 22.528-18.944 22.528M188.928 617.984H130.56c-10.24 0-18.944-10.24-18.944-22.528 0-12.288 8.704-22.528 18.944-22.528h58.368c10.24 0 18.944 10.24 18.944 22.528 0 12.288-8.704 22.528-18.944 22.528" fill="#00CE9B" p-id="3473"></path><path d="M657.92 161.792c0 15.872 12.8 28.672 28.672 28.672 15.872 0 28.672-12.8 28.672-28.672 0-15.872-12.8-28.672-28.672-28.672-15.36 0-28.672 12.8-28.672 28.672M744.96 161.792c0 15.872 12.8 28.672 28.672 28.672 15.872 0 28.672-12.8 28.672-28.672 0-15.872-12.8-28.672-28.672-28.672-15.872 0-28.672 12.8-28.672 28.672M832 161.792c0 15.872 12.8 28.672 28.672 28.672 15.872 0 28.672-12.8 28.672-28.672 0-15.872-12.8-28.672-28.672-28.672-15.872 0-28.672 12.8-28.672 28.672" fill="#40210F" p-id="3474"></path><path d="M560.64 652.288c-14.336-7.68-19.456-25.088-12.288-39.424l104.448-196.608c7.68-14.336 25.088-19.456 39.424-12.288 14.336 7.68 19.456 25.088 12.288 39.424L600.064 640c-7.68 14.336-25.088 19.456-39.424 12.288M484.352 596.992l-55.808-55.808c-11.264-11.264-11.264-30.208 0-41.472l55.808-55.808c1.536-1.536 3.584-1.536 5.12 0l36.352 36.352c1.536 1.536 1.536 3.584 0 5.12l-25.088 25.088c-5.632 5.632-5.632 14.848 0 20.48l25.088 25.088c1.536 1.536 1.536 3.584 0 5.12l-36.352 36.352c-1.024 1.024-3.584 1.024-5.12-0.512M785.92 596.992l-36.352-36.352c-1.536-1.536-1.536-3.584 0-5.12l25.088-25.088c5.632-5.632 5.632-14.848 0-20.48l-25.088-25.088c-1.536-1.536-1.536-3.584 0-5.12l36.352-36.352c1.536-1.536 3.584-1.536 5.12 0l55.808 55.808c11.264 11.264 11.264 30.208 0 41.472l-55.808 55.808c-1.536 2.048-4.096 2.048-5.12 0.512" fill="#00CE9B" p-id="3475"></path><path d="M328.704 229.888h637.44v56.32H328.704z" fill="#ffffff" p-id="3476"></path></svg>