<?xml version="1.0" standalone="no"?><!DOCTYPE svg PUBLIC "-//W3C//DTD SVG 1.1//EN" "http://www.w3.org/Graphics/SVG/1.1/DTD/svg11.dtd"><svg t="1701938798095" class="icon" viewBox="0 0 1024 1024" version="1.1" xmlns="http://www.w3.org/2000/svg" p-id="3622" xmlns:xlink="http://www.w3.org/1999/xlink" width="200" height="200"><path d="M12.8 126.976v770.048c0 38.912 28.16 70.144 62.464 70.144h873.984c34.304 0 62.464-31.232 62.464-70.144V126.976c0-38.912-28.16-70.144-62.464-70.144H75.264c-34.816 0.512-62.464 31.744-62.464 70.144z m921.088 770.048H90.624c-8.192 0-15.872-7.68-15.872-17.408V346.112c0-4.608 3.584-8.704 7.68-8.704h858.624c4.096 0 7.68 4.096 7.68 8.704v533.504c0.512 9.728-6.656 17.408-14.848 17.408z m7.68-629.76H82.944c-4.096 0-7.68-4.096-7.68-8.704V144.896c0-9.216 6.656-17.408 15.872-17.408h842.752c8.192 0 15.872 7.68 15.872 17.408v113.664c-0.512 4.608-4.096 8.704-8.192 8.704z" fill="#40210F" p-id="3623"></path><path d="M858.624 231.936c-19.456 0-34.816-15.872-34.816-34.816s15.872-34.816 34.816-34.816c19.456 0 34.816 15.872 34.816 34.816s-15.872 34.816-34.816 34.816z m-139.776 0c-19.456 0-34.816-15.872-34.816-34.816s15.872-34.816 34.816-34.816c19.456 0 34.816 15.872 34.816 34.816s-15.36 34.816-34.816 34.816z m-140.288 0c-19.456 0-34.816-15.872-34.816-34.816s15.872-34.816 34.816-34.816 34.816 15.872 34.816 34.816-15.36 34.816-34.816 34.816z" fill="#40210F" p-id="3624"></path><path d="M436.736 755.2c-17.408-8.704-23.552-30.208-14.848-47.104l124.928-235.008c8.704-17.408 30.208-23.552 47.104-14.848 17.408 8.704 23.552 30.208 14.848 47.104l-124.928 235.008c-9.216 17.408-30.208 24.064-47.104 14.848z m-141.312-65.536l-67.072-67.072c-13.824-13.824-13.824-36.352 0-49.664l67.072-67.072c1.536-1.536 4.608-1.536 6.144 0l43.52 43.52c1.536 1.536 1.536 4.096 0 6.144l-29.696 29.696c-6.656 6.656-6.656 17.92 0 24.576l29.696 29.696c1.536 1.536 1.536 4.096 0 6.144l-43.52 43.52c-2.048 3.072-4.608 3.072-6.144 0.512z m434.176 0l-43.52-43.52c-1.536-1.536-1.536-4.608 0-6.144l29.696-29.696c6.656-6.656 6.656-17.92 0-24.576l-29.696-29.696c-1.536-1.536-1.536-4.608 0-6.144l43.52-43.52c1.536-1.536 4.608-1.536 6.144 0l67.072 67.072c13.824 13.824 13.824 36.352 0 49.664l-67.072 67.072c-2.048 2.048-4.608 2.048-6.144-0.512z" fill="#ffffff" p-id="3625"></path></svg>