<?xml version="1.0" standalone="no"?><!DOCTYPE svg PUBLIC "-//W3C//DTD SVG 1.1//EN" "http://www.w3.org/Graphics/SVG/1.1/DTD/svg11.dtd"><svg t="1701938804846" class="icon" viewBox="0 0 1024 1024" version="1.1" xmlns="http://www.w3.org/2000/svg" p-id="3771" xmlns:xlink="http://www.w3.org/1999/xlink" width="200" height="200"><path d="M105.984 844.288H404.48c44.544 0 80.896-36.352 80.896-80.896V133.12c0-44.544-36.352-80.896-80.896-80.896H105.984C61.44 52.224 25.088 88.576 25.088 133.12v630.784c0 44.544 36.352 80.384 80.896 80.384zM98.304 133.12c0-4.096 3.584-7.68 7.68-7.68H404.48c4.096 0 7.68 3.584 7.68 7.68v630.784c0 4.096-3.584 7.68-7.68 7.68H105.984c-4.096 0-7.68-3.584-7.68-7.68V133.12z m363.008 764.416H49.664c-20.48 0-36.864 16.384-36.864 36.864s16.384 36.864 36.864 36.864h411.648c20.48 0 36.864-16.384 36.864-36.864-0.512-20.48-16.896-36.864-36.864-36.864z" fill="#40210F" p-id="3772"></path><path d="M255.488 613.888c20.48 0 36.864-16.384 36.864-36.864V319.488c0-20.48-16.384-36.864-36.864-36.864s-36.864 16.384-36.864 36.864v257.536c0 20.48 16.384 36.864 36.864 36.864z" fill="#40210F" p-id="3773"></path><path d="M918.016 53.248H619.52c-44.544 0-80.896 36.352-80.896 80.896v630.784c0 44.544 36.352 80.896 80.896 80.896h298.496c44.544 0 80.896-36.352 80.896-80.896V134.144c0-44.544-36.352-80.896-80.896-80.896z m7.68 711.68c0 4.096-3.584 7.68-7.68 7.68H619.52c-4.096 0-7.68-3.584-7.68-7.68V134.144c0-4.096 3.584-7.68 7.68-7.68h298.496c4.096 0 7.68 3.584 7.68 7.68v630.784zM974.336 898.56h-411.648c-20.48 0-36.864 16.384-36.864 36.864s16.384 36.864 36.864 36.864h411.648c20.48 0 36.864-16.384 36.864-36.864s-16.384-36.864-36.864-36.864z" fill="#00CE9B" p-id="3774"></path><path d="M769.536 613.888c20.48 0 36.864-16.384 36.864-36.864V319.488c0-20.48-16.384-36.864-36.864-36.864s-36.864 16.384-36.864 36.864v257.536c0.512 20.48 16.896 36.864 36.864 36.864z" fill="#00CE9B" p-id="3775"></path></svg>